Coordinates
version=1
nRows=10
nColumns=40
inDegrees=yes

Units are S.I. units (second, meters, Newtons, ...)
If the header above contains a line with 'inDegrees', this indicates whether rotational values are in degrees (yes) or radians (no).

endheader
time	pelvis_tilt	pelvis_list	pelvis_rotation	pelvis_tx	pelvis_ty	pelvis_tz	hip_flexion_r	hip_adduction_r	hip_rotation_r	knee_angle_r	knee_angle_r_beta	ankle_angle_r	subtalar_angle_r	mtp_angle_r	hip_flexion_l	hip_adduction_l	hip_rotation_l	knee_angle_l	knee_angle_l_beta	ankle_angle_l	subtalar_angle_l	mtp_angle_l	lumbar_extension	lumbar_bending	lumbar_rotation	arm_flex_r	arm_add_r	arm_rot_r	elbow_flex_r	pro_sup_r	wrist_flex_r	wrist_dev_r	arm_flex_l	arm_add_l	arm_rot_l	elbow_flex_l	pro_sup_l	wrist_flex_l	wrist_dev_l
      0.24000000	     -5.36445227	     -9.84676039	     89.84131467	      0.16400803	      0.87999131	      1.85798427	     40.44961124	     -2.81343530	      4.71809824	      2.61838457	      0.04569943	      9.47090064	      0.00000000	      0.00000000	    -13.36549180	      8.52229186	      8.19339245	     -4.48515632	     -0.07828075	     10.98345014	      0.00000000	      0.00000000	      1.69410975	     -6.36750094	     -1.86949568	      0.00000000	      0.00000000	      0.00000000	      0.00000000	      0.00000000	      0.00000000	      0.00000000	      0.00000000	      0.00000000	      0.00000000	      0.00000000	      0.00000000	      0.00000000	      0.00000000
      0.25000000	     -5.34847174	     -9.90736971	     89.85017855	      0.16459164	      0.87649822	      1.83825036	     40.68809138	     -2.67093374	      5.80040729	      2.15601327	      0.03762953	      9.82773461	      0.00000000	      0.00000000	    -14.45648792	      8.37358012	      8.25829638	     -4.08727578	     -0.07133642	     10.93209114	      0.00000000	      0.00000000	      1.89650605	     -6.35835409	     -1.96246396	      0.00000000	      0.00000000	      0.00000000	      0.00000000	      0.00000000	      0.00000000	      0.00000000	      0.00000000	      0.00000000	      0.00000000	      0.00000000	      0.00000000	      0.00000000	      0.00000000
      0.26000000	     -5.24099967	    -10.02753063	     89.85740162	      0.16525176	      0.87338818	      1.81842297	     41.13726465	     -2.39036915	      6.17210248	      2.76726749	      0.04829793	      9.60679440	      0.00000000	     -0.00000000	    -15.19512250	      8.14831390	      8.08337425	     -3.20256708	     -0.05589534	     10.60878956	      0.00000000	     -0.00000000	      2.17657721	     -6.25207744	     -1.87549818	     -0.00000000	     -0.00000000	      0.00000000	      0.00000000	      0.00000000	     -0.00000000	      0.00000000	      0.00000000	      0.00000000	      0.00000000	      0.00000000	      0.00000000	      0.00000000	     -0.00000000
      0.27000000	     -4.99380114	    -10.10038223	     89.86250491	      0.16607620	      0.87090442	      1.79830885	     41.44323771	     -1.91614928	      6.54011409	      3.94645535	      0.06887864	      9.18711208	      0.00000000	      0.00000000	    -15.77912773	      7.78541737	      7.86046397	     -1.98312823	     -0.03461212	     10.09430181	      0.00000000	      0.00000000	      2.43048433	     -6.00202086	     -1.73839077	      0.00000000	      0.00000000	      0.00000000	      0.00000000	      0.00000000	      0.00000000	      0.00000000	      0.00000000	      0.00000000	      0.00000000	      0.00000000	      0.00000000	      0.00000000	      0.00000000
      0.28000000	     -4.56233071	    -10.00020382	     89.86457872	      0.16706368	      0.86917491	      1.77784487	     41.67073742	     -1.26719936	      5.91782773	      5.91523780	      0.10324038	      8.60668531	      0.00000000	      0.00000000	    -16.17326330	      7.23859258	      6.49285246	     -0.17577761	     -0.00306790	      9.03682582	      0.00000000	      0.00000000	      2.52305533	     -5.54977385	     -1.61344441	      0.00000000	      0.00000000	      0.00000000	      0.00000000	      0.00000000	      0.00000000	      0.00000000	      0.00000000	      0.00000000	      0.00000000	      0.00000000	      0.00000000	      0.00000000	      0.00000000
      0.29000000	     -4.10961511	    -10.03931137	     89.86703846	      0.16804142	      0.86783906	      1.75728541	     41.97641991	     -0.61092155	      5.33594159	      8.10986456	      0.14154384	      7.17800085	      0.00000000	      0.00000000	    -16.13812426	      6.65067992	      5.24539244	      2.04584252	      0.03570669	      7.67805837	      0.00000000	      0.00000000	      2.79905490	     -5.06869903	     -1.41496560	      0.00000000	      0.00000000	      0.00000000	      0.00000000	      0.00000000	      0.00000000	      0.00000000	      0.00000000	      0.00000000	      0.00000000	      0.00000000	      0.00000000	      0.00000000	      0.00000000
      0.30000000	     -3.61020378	    -10.04845515	     89.86740907	      0.16902954	      0.86712844	      1.73653550	     42.19515770	      0.04078733	      4.57677992	     10.42939440	      0.18202727	      5.19449879	      0.00000000	     -0.00000000	    -15.81477873	      5.96934441	      3.76652538	      4.73420210	      0.08262741	      5.79962234	      0.00000000	     -0.00000000	      3.06627552	     -4.53220421	     -1.20068975	     -0.00000000	     -0.00000000	     -0.00000000	      0.00000000	      0.00000000	      0.00000000	     -0.00000000	      0.00000000	      0.00000000	     -0.00000000	      0.00000000	      0.00000000	      0.00000000	     -0.00000000
      0.31000000	     -3.05618551	    -10.01240608	     89.86739624	      0.17006848	      0.86709909	      1.71571729	     42.26080305	      0.69446372	      3.81537666	     12.67495311	      0.22121966	      2.88039871	      0.00000000	      0.00000000	    -15.19372751	      5.16487284	      2.14425112	      7.90869179	      0.13803271	      3.38839987	      0.00000000	      0.00000000	      3.28877194	     -3.94131055	     -0.95563891	      0.00000000	      0.00000000	      0.00000000	      0.00000000	      0.00000000	      0.00000000	      0.00000000	      0.00000000	      0.00000000	      0.00000000	      0.00000000	      0.00000000	      0.00000000	      0.00000000
      0.32000000	     -2.33414781	    -10.07015975	     89.86370599	      0.17125311	      0.86759350	      1.69480663	     42.23505284	      1.49281816	      3.22171827	     14.65648803	      0.25580397	      0.46796860	      0.00000000	      0.00000000	    -14.10153714	      4.06991200	      0.25003850	     11.61310883	      0.20268699	      0.42599552	      0.00000000	      0.00000000	      3.66114925	     -3.14788384	     -0.64011269	      0.00000000	      0.00000000	      0.00000000	      0.00000000	      0.00000000	      0.00000000	      0.00000000	      0.00000000	      0.00000000	      0.00000000	      0.00000000	      0.00000000	      0.00000000	      0.00000000
      0.33000000	     -1.55120314	     -9.94709804	     89.85960770	      0.17250183	      0.86897643	      1.67387811	     41.87308638	      2.29823452	      2.54176763	     16.44386291	      0.28699955	     -1.60046101	     -0.00000000	      0.00000000	    -12.93913601	      2.82769393	     -1.34541172	     15.64377871	      0.27303545	     -3.02288809	      0.00000000	      0.00000000	      3.80910587	     -2.31648915	     -0.34444423	     -0.00000000	     -0.00000000	     -0.00000000	      0.00000000	      0.00000000	     -0.00000000	     -0.00000000	      0.00000000	      0.00000000	      0.00000000	      0.00000000	      0.00000000	      0.00000000	     -0.00000000
